<?xml version="1.0" standalone="no"?>
<!DOCTYPE svg PUBLIC "-//W3C//DTD SVG 20010904//EN"
 "http://www.w3.org/TR/2001/REC-SVG-20010904/DTD/svg10.dtd">
<svg version="1.0" xmlns="http://www.w3.org/2000/svg"
 width="360.000000pt" height="360.000000pt" viewBox="0 0 360.000000 360.000000"
 preserveAspectRatio="xMidYMid meet">

<g transform="translate(0.000000,360.000000) scale(0.100000,-0.100000)"
fill="#000000" stroke="none">
<path d="M1632 3139 c-140 -18 -325 -83 -449 -157 -296 -178 -490 -451 -565
-797 -8 -37 -13 -126 -12 -230 0 -144 4 -183 23 -255 129 -489 488 -819 984
-905 36 -6 38 -5 28 14 -19 35 -13 94 14 134 14 20 30 37 35 37 6 0 10 4 10 9
0 4 -26 11 -59 14 -72 8 -207 50 -286 89 -211 106 -395 305 -476 513 -53 136
-72 250 -66 400 6 125 9 148 43 262 24 79 97 216 154 288 124 156 280 269 456
330 116 40 203 55 334 55 212 0 382 -51 560 -168 64 -42 204 -178 249 -241 17
-24 31 -40 31 -36 0 15 -107 149 -162 202 -29 28 -71 63 -92 77 -33 22 -36 26
-15 24 22 -3 24 1 25 36 1 23 8 44 16 50 9 7 14 23 13 38 -2 20 1 25 12 21 12
-5 12 -7 1 -15 -8 -5 -2 -6 16 -2 21 5 27 4 22 -5 -4 -6 -2 -11 4 -11 6 0 9
-4 5 -9 -3 -5 0 -13 6 -17 8 -4 9 -3 5 4 -4 7 -3 12 2 12 12 0 169 -136 181
-158 6 -9 11 -12 11 -6 0 11 -58 70 -130 134 -52 47 -155 113 -245 158 -197
98 -457 141 -683 111z m778 -185 c0 -2 -20 6 -45 18 -25 12 -45 25 -45 29 0 4
20 -4 45 -18 25 -13 45 -27 45 -29z"/>
<path d="M2430 2790 c0 -6 7 -10 15 -10 8 0 15 2 15 4 0 2 -7 6 -15 10 -8 3
-15 1 -15 -4z"/>
<path d="M2395 2780 c3 -5 11 -10 16 -10 6 0 7 5 4 10 -3 6 -11 10 -16 10 -6
0 -7 -4 -4 -10z"/>
<path d="M1301 2498 c-5 -13 -27 -69 -50 -126 -23 -56 -41 -104 -41 -106 0 -2
12 -3 26 -3 20 0 28 7 36 28 9 27 14 29 63 29 50 0 54 -2 64 -30 8 -23 16 -30
36 -30 31 0 32 -8 -29 146 -39 96 -47 109 -70 112 -20 3 -28 -2 -35 -20z m68
-130 c1 -5 -15 -8 -35 -8 -38 0 -38 1 -12 70 10 25 10 25 28 -15 10 -22 19
-43 19 -47z"/>
<path d="M1490 2390 l0 -130 25 0 c23 0 25 3 25 50 l0 50 48 0 c26 0 57 7 69
15 47 33 36 115 -19 134 -17 6 -57 11 -89 11 l-59 0 0 -130z m138 51 c4 -29
-12 -41 -55 -41 -31 0 -33 2 -33 33 0 43 3 45 48 38 29 -5 38 -11 40 -30z"/>
<path d="M1730 2391 l0 -131 25 0 c23 0 25 3 25 50 l0 50 41 0 c41 0 78 14 91
34 4 6 8 27 8 47 0 53 -24 69 -114 76 l-76 6 0 -132z m114 79 c18 -7 26 -17
26 -34 0 -26 -16 -36 -61 -36 -27 0 -29 2 -29 40 0 44 13 50 64 30z"/>
<path d="M2140 2508 c0 -5 18 -36 40 -69 34 -52 40 -68 40 -115 0 -51 1 -54
25 -54 23 0 25 3 25 53 0 45 6 61 45 120 45 66 45 67 20 67 -20 0 -32 -11 -56
-51 l-32 -50 -28 49 c-19 34 -36 51 -53 54 -15 3 -26 1 -26 -4z"/>
<path d="M1970 2390 l0 -120 90 0 c73 0 90 3 90 15 0 12 -14 15 -65 15 l-65 0
0 105 0 105 -25 0 -25 0 0 -120z"/>
<path d="M1225 2122 c-58 -19 -85 -60 -85 -129 0 -44 5 -58 31 -88 29 -32 35
-35 88 -35 87 1 121 38 121 133 0 66 -24 102 -78 117 -41 11 -48 11 -77 2z
m89 -64 c9 -12 16 -42 16 -65 0 -51 -26 -83 -68 -83 -45 0 -64 21 -69 77 -5
42 -2 54 16 72 29 29 85 28 105 -1z"/>
<path d="M1430 1995 c0 -117 1 -125 20 -125 17 0 19 8 22 82 l3 82 50 -82 c43
-71 54 -82 77 -82 l28 0 0 125 0 125 -25 0 c-25 0 -25 -1 -25 -82 l-1 -83 -34
55 c-66 106 -70 110 -92 110 -23 0 -23 -2 -23 -125z"/>
<path d="M1685 1995 l0 -125 88 0 c80 0 87 2 87 20 0 18 -7 20 -60 20 l-60 0
0 105 0 105 -27 0 -28 0 0 -125z"/>
<path d="M1900 1995 l0 -125 25 0 25 0 0 125 0 125 -25 0 -25 0 0 -125z"/>
<path d="M2000 1995 l0 -125 26 0 26 0 -4 80 c-2 44 -1 80 2 80 3 0 28 -36 55
-80 38 -62 55 -80 72 -80 23 0 23 2 23 125 0 118 -1 125 -20 125 -17 0 -19 -8
-22 -87 l-3 -86 -53 86 c-43 71 -57 87 -77 87 l-25 0 0 -125z"/>
<path d="M2260 1995 l0 -125 95 0 c88 0 95 1 95 20 0 18 -7 20 -73 20 l-73 0
4 38 4 37 60 0 c51 0 61 3 64 18 2 17 -4 18 -62 15 l-64 -3 0 33 0 32 71 0
c61 0 70 2 65 16 -3 9 -6 18 -6 20 0 2 -40 4 -90 4 l-90 0 0 -125z"/>
<path d="M2781 1854 c0 -11 3 -14 6 -6 3 7 2 16 -1 19 -3 4 -6 -2 -5 -13z"/>
<path d="M1694 1670 c-32 -13 -64 -59 -64 -92 0 -32 21 -70 243 -447 70 -118
125 -216 124 -217 -2 -2 -54 10 -116 26 -103 27 -116 28 -146 15 -66 -27 -83
-116 -31 -164 22 -21 122 -51 372 -113 l81 -20 51 -86 c28 -48 56 -93 61 -101
7 -11 43 5 183 84 95 54 179 104 187 111 16 15 -135 -60 -155 -77 -8 -6 -18
-9 -21 -5 -4 4 -1 11 7 16 8 6 10 10 4 10 -6 0 -17 -7 -24 -15 -9 -11 -9 -15
-1 -15 7 0 9 -4 6 -10 -4 -6 -11 -5 -20 3 -11 10 -10 15 3 31 16 18 16 18 -5
8 -12 -7 -23 -17 -26 -24 -2 -7 -4 3 -3 22 0 19 6 38 11 42 6 5 5 8 -3 8 -10
0 -12 83 -11 398 1 350 -1 403 -15 430 -17 34 -61 62 -96 62 -57 0 -108 -60
-98 -115 8 -37 -4 -30 -26 16 -35 73 -111 91 -168 40 -28 -25 -33 -36 -32 -71
1 -40 -1 -37 -72 87 -91 159 -130 191 -200 163z m652 -210 c0 -12 -4 -16 -9
-11 -5 5 -6 14 -3 20 10 15 12 14 12 -9z m34 -10 c0 -5 -2 -10 -4 -10 -3 0 -8
5 -11 10 -3 6 -1 10 4 10 6 0 11 -4 11 -10z m-25 -930 c-16 -11 -34 -20 -40
-20 -5 0 4 9 20 20 17 11 35 20 40 20 6 0 -3 -9 -20 -20z"/>
<path d="M2451 1539 c-21 -20 -31 -40 -31 -60 0 -40 17 -28 26 17 5 25 11 34
21 30 8 -3 11 -2 8 4 -7 11 27 30 55 30 21 0 71 -44 98 -85 7 -11 5 -5 -4 14
-41 85 -116 107 -173 50z"/>
<path d="M2686 1535 c-3 -9 -6 -22 -5 -28 0 -7 5 -1 10 12 5 13 8 26 5 28 -2
2 -6 -3 -10 -12z"/>
<path d="M2710 1451 c0 -6 4 -13 10 -16 6 -3 7 1 4 9 -7 18 -14 21 -14 7z"/>
<path d="M2416 1385 c-9 -26 -7 -32 5 -12 6 10 9 21 6 23 -2 3 -7 -2 -11 -11z"/>
<path d="M2420 630 c-9 -6 -10 -10 -3 -10 6 0 15 5 18 10 8 12 4 12 -15 0z"/>
</g>
</svg>
